<?xml version="1.0"?>
<svg xmlns:rdf="http://www.w3.org/1999/02/22-rdf-syntax-ns#" xmlns="http://www.w3.org/2000/svg" xmlns:cc="http://web.resource.org/cc/" xmlns:dc="http://purl.org/dc/elements/1.1/" xmlns:svg="http://www.w3.org/2000/svg" id="Layer_1" xml:space="preserve" viewBox="0 0 236.593 171.704" version="1.0">
<g id="g5">
	<path id="path7" d="m28.399 66.084l2.219-7.467c-1.536-1.188-2.219-3.182-2.219-5.813 0-2.842 0.896-6.406 2.219-10.224 1.11-3.988 2.817-8.952 5.292-12.431 2.518-3.437 7.297-6.236 9.729-7.721 2.305-1.57 3.457-0.721 4.14-1.4 0.427-0.891 0.128-2.546-0.555-3.31-0.598-0.806-1.664-1.272-3.03-1.4-3.328 1.019-6.145 2.333-8.62 4.413-2.518 1.951-4.012 4.115-6.103 7.467-2.219 3.352-4.48 7.254-6.956 12.176 0.128-10.989 1.237-18.922 3.329-24.31 2.091-5.303 5.761-6.533 9.175-7.764 3.286-1.358 6.956-1.655 10.839-0.552 1.28-1.909 2.731-3.31 4.694-4.667 1.963-1.315 4.14-3.097 6.7-3.054 2.433-0.17 6.06 1.951 7.767 2.757 1.494 0.848 1.28 0.551 1.664 2.207 0.171 1.57 0.299 4.794 0.555 6.915 0.256 1.952 1.792 3.776 1.664 4.964-0.341 1.103-1.664 0.679-2.475 1.655-0.811 0.806-0.64 2.715-1.963 3.606-1.536 0.848-5.376 1.018-6.401 1.654-1.067 0.467-0.853 1.019 0.299 1.655 1.067 0.508 3.969 0.721 6.401 1.951 2.304 1.188 4.096 1.442 7.511 5.516 3.371 4.073 7.425 10.224 12.503 18.794 2.689-0.127 6.486-0.466 11.394-0.848 4.949-0.467 13.569-1.867 17.799-1.909 4.05-0.084 6.27 0.127 6.65 1.103 2.31-0.552 4.31-0.424 5.85 0.551 1.54 1.061 0.34 3.479 3.33 4.964 2.82 1.272 9.47 1.951 13.87 2.503 4.39 0.424 8.32 0.509 12.25 0.254 2.21-2.715 5.03-5.6 8.62-8.825 3.58-3.224 7.59-6.788 12.5-10.521l-4.74-6.873c-2.26 0.042-3.62-0.085-4.43-0.551-0.9-0.595 0-1.57-0.26-2.249-0.39-0.764-1.02-1.146-1.41-1.654-0.47-0.594-1.07-0.934-1.11-1.655-0.08-0.891 0.9-2.376 0.81-3.31-0.21-1.018-1.92-1.697-1.66-3.012 0.13-1.57 1.19-3.861 2.52-5.558 1.23-1.824 2.34-3.733 4.99-4.412 2.56-0.764 7.47-0.891 10.28 0.297 2.69 1.145 5.3 3.733 5.85 6.618 0.34 2.63-2.6 6.789-3.07 9.673-0.56 2.927-0.56 5.261 0 7.467 5.59 5.006 10.45 10.691 14.77 17.395 4.3 6.661 7.59 16.249 10.84 22.4 3.07 6.025 6.69 9.037 7.76 13.789 0.81 4.667-1.32 9.503-1.96 13.832-0.56 4.24-1.45 7.47-1.37 11.33-0.08 3.64 0.35 7.29 1.11 10.77 2.94 1.44 5.59 3.31 7.77 6.07 2.13 2.72 3.45 7.13 5.29 9.97 1.88 2.71 5.21 4.03 5.55 6.07 0.13 1.9-1.49 3.6-4.7 5.26 1.67 2.75 1.97 4.96 1.37 6.62-0.77 1.48-3.54 1.35-5.55 3.05-2.09 1.65-4.44 5.81-6.4 6.91-2.05 1.02-3.84 0.68-5.55-0.84-2.98 0.51-6.44 0.84-10.02 0.84-3.8 0.09-10.63-0.25-11.95-0.84-1.28-0.85 1.49-2.38 3.88-3.61 2.3-1.31 5.25-2.55 9.47-3.86-0.08-1.91-0.08-3.82 0-6.07 0-2.29 0.09-4.62 0.26-7.17-5.59-6.57-9.64-12.05-12.5-16.59-2.9-4.58-4.27-6.7-4.44-10.77-0.13-4.16 2.9-8.1 3.33-14.13 0.25-6.149-0.3-13.447-1.67-22.356-2.68-2.333-5.03-4.794-7.21-7.721-2.17-2.927-4.18-6.152-5.85-9.673-0.38 1.357-1.23 2.121-2.22 2.46-1.15 0.212-2.43-0.382-4.18-0.806-1.79-0.424-3.92-1.188-6.4-1.951-4.18 2.206-7.64 3.648-10.54 3.861-2.9 0.211-3.62-1.23-6.96-2.207-3.45-1.103-10.07-2.46-13.61-3.563-3.75-1.146-6.06-2.46-8.06-2.8-2.05-0.424-2.95 1.23-4.19 0.551-1.36-0.848-2.56-2.333-3.58-4.963-3.58-0.721-6.74-1.146-9.47-0.806-2.73 0.212-3.76 1.061-7.22 2.206-3.667 1.061-11.135 3.437-14.165 4.158-3.158 0.509-1.92 1.061-4.182-0.298-2.432-1.4-7.212-6.108-9.73-7.721-2.561-1.57-4.353-2.333-5.548-1.952 0.085 2.333-0.085 4.455-0.853 6.364-0.897 1.867-2.305 2.206-3.585 4.964-1.323 2.63-2.518 6.321-3.926 11.073 4.694 5.43 9.303 10.437 14.167 15.188 4.737 4.709 9.559 9.122 14.467 13.232l-1.109 3.06c3.073 3.94 6.103 7.51 8.919 10.52 2.774 3.01 5.505 5.64 8.025 7.72-3.07 3.74-5.849 6.83-8.324 9.12-2.518 2.38-4.737 3.74-6.657 4.71 0.469 5.9 1.792 10.78 4.139 15.45 2.305 4.62 6.142 8.61 9.732 11.62 3.54 2.76 9.68 4.37 10.84 5.52 0.77 1.1-2.52 1.44-5.25 1.65-2.82-0.04-7.64-0.64-10.841-0.81-3.329-0.21-6.828 1.4-8.364 0.26-1.622-1.36 0.469-3.9-0.811-7.47-1.28-3.65-4.438-9.54-6.7-13.79-2.347-4.28-4.694-8.1-7.212-11.62-7.127 0.55-13.272 1.02-18.607 1.4-5.376 0.34-9.772 0.47-13.357 0.55-1.536 5.73-2.901 10.35-3.626 14.34-0.939 3.9-2.006 6.83-1.366 9.12 0.726 2.12 3.158 2.63 4.993 4.16 1.579 1.53 5.036 4.07 4.438 4.71-0.853 0.3-5.676-0.89-8.876-1.95-3.243-1.11-9.133-1.95-10.285-4.16-1.28-2.21 1.835-4.79 2.774-9.08 0.811-4.45 1.707-10.27 2.518-17.44-5.079-1.06-10.456-2.37-16.131-4.41-5.719-2.08-11.693-4.41-18.094-7.47 1.92-9.63 4.523-18.41 7.81-26.51 3.158-8.275 8.193-16.294 11.65-22.107 3.454-5.768 6.313-9.968 8.916-12.429z" fill-rule="evenodd" stroke="#000" stroke-miterlimit="10" stroke-width=".036"/>
</g>
<metadata><rdf:RDF><cc:Work><dc:format>image/svg+xml</dc:format><dc:type rdf:resource="http://purl.org/dc/dcmitype/StillImage"/><cc:license rdf:resource="http://creativecommons.org/licenses/publicdomain/"/><dc:publisher><cc:Agent rdf:about="http://openclipart.org/"><dc:title>Openclipart</dc:title></cc:Agent></dc:publisher><dc:title>Fifties Dancers</dc:title><dc:date>2007-01-08T13:46:20</dc:date><dc:description>For request:&#xD;\n&#xD;\nWould really be appreciative of some fifties rock 'n' roll dancers in several dance positions. Several simplistic vector (SVG/EPS etc) outline images of a couple dancing would be really great&#xD;\n&#xD;\nMany many thanks.&#xD;\n&#xD;\nTiccer</dc:description><dc:source>http://openclipart.org/detail/2850/fifties-dancers-by-gerald_g-2850</dc:source><dc:creator><cc:Agent><dc:title>Gerald_G</dc:title></cc:Agent></dc:creator><dc:subject><rdf:Bag><rdf:li>clip art</rdf:li><rdf:li>clipart</rdf:li><rdf:li>dance</rdf:li><rdf:li>dancers</rdf:li><rdf:li>fifties</rdf:li><rdf:li>jitterbug</rdf:li><rdf:li>jive</rdf:li><rdf:li>man</rdf:li><rdf:li>people</rdf:li><rdf:li>silhouette</rdf:li><rdf:li>woman</rdf:li></rdf:Bag></dc:subject></cc:Work><cc:License rdf:about="http://creativecommons.org/licenses/publicdomain/"><cc:permits rdf:resource="http://creativecommons.org/ns#Reproduction"/><cc:permits rdf:resource="http://creativecommons.org/ns#Distribution"/><cc:permits rdf:resource="http://creativecommons.org/ns#DerivativeWorks"/></cc:License></rdf:RDF></metadata></svg>
