<?xml version="1.0"?>
<svg xmlns:rdf="http://www.w3.org/1999/02/22-rdf-syntax-ns#" xmlns="http://www.w3.org/2000/svg" xmlns:cc="http://web.resource.org/cc/" xmlns:dc="http://purl.org/dc/elements/1.1/" xmlns:svg="http://www.w3.org/2000/svg" id="Layer_1" xml:space="preserve" viewBox="0 0 168.5 185.24" version="1.0">
<g id="g5">
	<path id="path7" d="m25.373 61.523c-3.353 1.409-4.762 0.826-4.033-1.555 0.729-2.526 3.207-6.803 8.018-13.218-1.943-2.041-2.429-4.276-1.847-6.511 0.535-2.236 2.527-4.665 5.588-7.095 1.506-3.742 2.771-6.026 4.325-7.387 1.458-1.214 2.818-1.506 4.276-0.34 2.527-1.798 4.908-2.818 7.727-3.062 2.673-0.438 6.511-0.292 8.358 1.215 1.604 1.458 1.214 5.54 1.846 7.727 0.536 2.089 1.41 3.256 1.507 4.616-0.194 1.069-1.555 1.021-1.847 2.479-0.34 1.506 0.778 4.714 0 5.88-0.923 0.923-2.673 0.923-5.248 0-1.167 1.943-0.875 3.547 0.34 4.616 1.36 0.875 4.957 1.118 7.386 1.847 2.236 0.68 4.228 1.264 6.172 3.062 1.749 1.798 2.235 6.22 4.616 7.435 2.332 0.778 6.608 0.292 9.281-1.263 2.479-1.604 4.472-4.131 6.172-7.386 1.556-3.401 2.867-8.552 4.325-11.711 1.458-3.158 3.158-5.151 4.907-6.511l-3.061-6.463c-1.944 0.486-3.549 0-4.616-0.923-1.118-1.118-1.41-4.179-2.187-5.249-1.167-1.166-3.208-0.388-3.694-1.214-0.34-1.021 1.069-2.43 1.214-4.033-0.242-1.555-0.873-3.985-1.505-5.249-0.729-1.36-3.159-1.506-1.847-3.062 1.36-1.846 6.705-6.317 9.864-7.435 2.964-1.215 5.491-0.729 8.31 0.34 2.62 1.021 6.51 3.402 7.73 5.831 1.07 2.236-0.93 4.617-0.93 7.727-0.04 2.916 0.1 6.317 0.64 10.205 5.34 0.972 9.76 2.722 13.26 5.249 3.55 2.333 5.3 5.686 7.68 9.524 2.04 3.937 3.64 8.747 5.59 13.899 1.94 5.053 3.94 10.447 6.17 16.376 2.48 2.77 4.42 6.366 5.83 10.788 1.12 4.47-0.09 7.095 2.19 15.744 2.33 8.454 8.36 25.074 11.71 34.844 3.26 9.62 6.71 17.3 7.73 22.84 0.78 5.39-0.15 8.36-2.77 9.28l0.92 9.23c2.58 2.19 3.5 3.65 2.77 4.96-0.73 1.11-5.1 1.02-7.1 2.14-2.18 1.02-3.15 3.11-5.53 4.03-2.53 0.68-9.19 2.58-9.29 0.63-0.19-2.09 2.82-6.41 8.65-12.97 0.88-1.12 0.39-4.52-1.26-10.21-1.7-5.88-4.18-15.65-8.94-24.05-5.01-8.6-11.61-17.2-20.36-26.54-3.74 4.38-6.42 8.6-8.02 13.27-1.75 4.47-1.75 8.6-1.85 13.9-0.19 5.2 0.34 11.13 1.22 17.59 1.31-0.05 2.14 0.87 2.48 2.77 0.29 1.99-0.59 5.25-0.59 8.65-0.19 3.16 0.93 8.26 0 10.45-1.16 1.89-3.59 1.45-5.58 1.89-2.05 0.44-2.92 0.25-5.84 0.93-3.11 0.68-9.568 2.67-12.047 2.77-2.576-0.2-4.665-1.95-3.111-3.41 1.507-1.55 9.768-2.86 12.048-5.24 2.19-2.43 2.44-5.45 0.93-9.24-1.02-0.82-1.7-1.7-1.85-2.81-0.19-1.22-0.05-2.48 0.63-3.99-4.03-10.25-6.266-18.9-6.508-26.53-0.293-7.68 1.894-10.84 4.658-18.86 2.53-8.06 6.13-17.829 10.79-29.297-2.18-3.013-4.08-5.929-5.88-8.941-1.89-3.109-3.35-6.074-4.91-9.281-0.09 1.167-1.744 2.138-4.951 3.11-3.401 0.875-9.476 1.895-14.48 2.478-5.055 0.437-10.302 0.535-15.745 0.292-1.749 1.604-3.062 2.672-4.325 3.401-1.264 0.68-2.235 0.826-3.11 0.632-0.972 3.401-1.992 6.268-3.062 8.601-1.167 2.187-2.235 3.839-3.401 4.957 2.235 7.093 3.013 14.918 3.062 24.048-0.146 9-1.313 18.91-3.694 29.94l-5.248 3.4c0.631 2.82 0.777 4.96 0.631 6.8-0.194 1.7-0.437 2.87-1.846 3.7-1.604 0.77-3.791 1.02-7.095 0.92-0.972 3.74-1.36 6.66-1.555 8.94-0.34 1.99-0.194 3.31 0.632 4.33 0.826 1.07 3.013 1.26 4.325 2.48 1.215 0.97 3.742 3.35 3.062 4.32-0.777 0.92-3.353 1.51-7.727 1.55 0.438 2 0.34 3.5-0.292 4.33-0.68 0.73-2.187 0.92-3.985 0.58-1.943-0.39-5.928-1.5-7.435-2.77-1.604-1.5-2.187-3.79-2.138-5.54-0.098-1.94 1.215-1.5 1.506-5.24 0.146-3.94 0.048-9.63-0.292-17.6-0.972-0.38-2.722-0.63-5.249-1.26-2.672-0.58-8.309-0.48-10.156-2.14-1.798-1.8-2.235-4.56-0.923-8.31-3.936 0.29-6.317-0.53-7.143-2.48-0.826-2.04-0.097-2.48 2.187-9.57 2.089-7.44 6.804-25.27 10.789-33.627 3.985-8.26 7.969-13.508 12.683-15.743-0.923-5.686-1.507-10.01-1.555-12.975-0.097-3.114 0.146-4.863 0.923-5.252z" fill-rule="evenodd" stroke="#000" stroke-miterlimit="10" stroke-width=".036"/>
</g>
<metadata><rdf:RDF><cc:Work><dc:format>image/svg+xml</dc:format><dc:type rdf:resource="http://purl.org/dc/dcmitype/StillImage"/><cc:license rdf:resource="http://creativecommons.org/licenses/publicdomain/"/><dc:publisher><cc:Agent rdf:about="http://openclipart.org/"><dc:title>Openclipart</dc:title></cc:Agent></dc:publisher><dc:title>Fifties Dancers</dc:title><dc:date>2007-01-08T13:46:20</dc:date><dc:description>For request:&#xD;\n&#xD;\nWould really be appreciative of some fifties rock 'n' roll dancers in several dance positions. Several simplistic vector (SVG/EPS etc) outline images of a couple dancing would be really great&#xD;\n&#xD;\nMany many thanks.&#xD;\n&#xD;\nTiccer</dc:description><dc:source>http://openclipart.org/detail/2851/fifties-dancers-by-gerald_g-2851</dc:source><dc:creator><cc:Agent><dc:title>Gerald_G</dc:title></cc:Agent></dc:creator><dc:subject><rdf:Bag><rdf:li>clip art</rdf:li><rdf:li>clipart</rdf:li><rdf:li>dance</rdf:li><rdf:li>dancers</rdf:li><rdf:li>fifties</rdf:li><rdf:li>jitterbug</rdf:li><rdf:li>jive</rdf:li><rdf:li>man</rdf:li><rdf:li>people</rdf:li><rdf:li>silhouette</rdf:li><rdf:li>woman</rdf:li></rdf:Bag></dc:subject></cc:Work><cc:License rdf:about="http://creativecommons.org/licenses/publicdomain/"><cc:permits rdf:resource="http://creativecommons.org/ns#Reproduction"/><cc:permits rdf:resource="http://creativecommons.org/ns#Distribution"/><cc:permits rdf:resource="http://creativecommons.org/ns#DerivativeWorks"/></cc:License></rdf:RDF></metadata></svg>
