<?xml version="1.0"?>
<svg xmlns:rdf="http://www.w3.org/1999/02/22-rdf-syntax-ns#" xmlns="http://www.w3.org/2000/svg" xmlns:cc="http://creativecommons.org/ns#" xmlns:xlink="http://www.w3.org/1999/xlink" xmlns:dc="http://purl.org/dc/elements/1.1/" xmlns:svg="http://www.w3.org/2000/svg" id="svg2" viewBox="0 0 692.02 569.71" version="1.1">
  <defs id="defs4">
    <filter id="filter4513-3" color-interpolation-filters="sRGB">
      <feGaussianBlur id="feGaussianBlur4515-1" stdDeviation="7.9675264"/>
    </filter>
    <filter id="filter4037-8" color-interpolation-filters="sRGB">
      <feGaussianBlur id="feGaussianBlur4039-5" stdDeviation="2.6208468"/>
    </filter>
    <filter id="filter4240-1" height="1.6982" width="1.0656" y="-.34912" x="-.03282" color-interpolation-filters="sRGB">
      <feGaussianBlur id="feGaussianBlur4242-7" stdDeviation="3.3851936"/>
    </filter>
    <radialGradient id="radialGradient3141-2" gradientUnits="userSpaceOnUse" cy="648.79" cx="-8.1892" gradientTransform="matrix(1.0451 4.5533e-8 .0000027822 .14212 .36777 570.3)" r="122.64">
      <stop id="stop3137-4" stop-color="#4d4d4d" offset="0"/>
      <stop id="stop3139-9" stop-color="#4d4d4d" stop-opacity="0" offset="1"/>
    </radialGradient>
    <linearGradient id="linearGradient3161-6" y2="614.94" gradientUnits="userSpaceOnUse" x2="-39.44" y1="629.73" x1="122.35">
      <stop id="stop3157-1" stop-color="#b3b3b3" offset="0"/>
      <stop id="stop3159-1" stop-color="#b3b3b3" stop-opacity="0" offset="1"/>
    </linearGradient>
    <linearGradient id="linearGradient4214-8" y2="642.28" gradientUnits="userSpaceOnUse" x2="-12.549" y1="613.15" x1="123.7">
      <stop id="stop4090-3" stop-color="#f9f9f9" offset="0"/>
      <stop id="stop4092-4" stop-color="#f9f9f9" stop-opacity="0" offset="1"/>
    </linearGradient>
    <linearGradient id="linearGradient3151-8" y2="388.16" gradientUnits="userSpaceOnUse" x2="-198.99" y1="739.09" x1="285.94">
      <stop id="stop3147-9" stop-color="#fff" offset="0"/>
      <stop id="stop3149-7" stop-color="#fff" stop-opacity="0" offset="1"/>
    </linearGradient>
    <radialGradient id="radialGradient3106-3" gradientUnits="userSpaceOnUse" cy="520.24" cx="12.549" gradientTransform="matrix(1.6077 -.20376 .077769 .57456 -54.019 227.78)" r="181.58">
      <stop id="stop3102-4" stop-color="#999" offset="0"/>
      <stop id="stop3104-6" stop-color="#999" stop-opacity="0" offset="1"/>
    </radialGradient>
    <radialGradient id="radialGradient3110-0" gradientUnits="userSpaceOnUse" cy="492.09" cx="-19.973" gradientTransform="matrix(2 -.030955 .014713 .80821 -1.7649 104.06)" r="181.58">
      <stop id="stop3114-5" stop-color="#999" offset="0"/>
      <stop id="stop3116-1" offset="1"/>
    </radialGradient>
    <linearGradient id="linearGradient3185-3" y2="613.05" xlink:href="#linearGradient3179-9" gradientUnits="userSpaceOnUse" x2="141.82" gradientTransform="matrix(.70672 0 0 .73946 41.78 159.97)" y1="615.66" x1="141.82"/>
    <linearGradient id="linearGradient3179-9">
      <stop id="stop3181-3" stop-color="#4d4d4d" offset="0"/>
      <stop id="stop3183-9" stop-color="#4d4d4d" stop-opacity="0" offset="1"/>
    </linearGradient>
    <linearGradient id="linearGradient3189-2" y2="614.23" xlink:href="#linearGradient3179-9" gradientUnits="userSpaceOnUse" x2="141.9" gradientTransform="matrix(-.70672 0 0 -.73946 242.36 1067.3)" y1="615.66" x1="141.82"/>
    <linearGradient id="linearGradient3209-2" y2="613.05" xlink:href="#linearGradient3179-9" gradientUnits="userSpaceOnUse" x2="141.82" gradientTransform="matrix(.70672 0 0 .73946 30.799 159.63)" y1="615.66" x1="141.82"/>
    <linearGradient id="linearGradient3211-7" y2="614.23" xlink:href="#linearGradient3179-9" gradientUnits="userSpaceOnUse" x2="141.9" gradientTransform="matrix(-.70672 0 0 -.73946 231.38 1066.9)" y1="615.66" x1="141.82"/>
    <linearGradient id="linearGradient3227-8" y2="613.05" xlink:href="#linearGradient3179-9" gradientUnits="userSpaceOnUse" x2="141.82" gradientTransform="matrix(.70672 0 0 .73946 20.155 159.29)" y1="615.66" x1="141.82"/>
    <linearGradient id="linearGradient3229-7" y2="614.23" xlink:href="#linearGradient3179-9" gradientUnits="userSpaceOnUse" x2="141.9" gradientTransform="matrix(-.70672 0 0 -.73946 220.73 1066.6)" y1="615.66" x1="141.82"/>
    <linearGradient id="linearGradient3245-3" y2="613.05" xlink:href="#linearGradient3179-9" gradientUnits="userSpaceOnUse" x2="141.82" gradientTransform="matrix(.70672 0 0 .73946 9.6227 159.07)" y1="615.66" x1="141.82"/>
    <linearGradient id="linearGradient3247-0" y2="614.23" xlink:href="#linearGradient3179-9" gradientUnits="userSpaceOnUse" x2="141.9" gradientTransform="matrix(-.70672 0 0 -.73946 210.2 1066.4)" y1="615.66" x1="141.82"/>
  </defs>
  <g id="layer1" transform="translate(-37.428 -39.665)">
    <g id="g4517" transform="matrix(1.8128 0 0 1.8128 355.04 -692.53)">
      <g id="g4432" opacity=".44" filter="url(#filter4513-3)" transform="matrix(.94349 0 0 .89973 167.82 -374.43)">
        <g id="g4297" transform="translate(-162.24 488.51)">
          <path id="path4299" d="m137.54 664.78c0 9.6264-54.91 17.43-122.64 17.43-67.735 0-122.64-7.8037-122.64-17.43 0-2.0729 4.3721-9.3076 9.0442-11.152 17.025-6.7199 60.451-6.2784 113.6-6.2784 55.603 0 104.39 0.0124 119.43 7.2212 3.2811 1.5728 3.2165 8.4848 3.2165 10.209z" transform="matrix(1.0413 0 0 1.2685 -8.8555 -159.9)"/>
          <path id="path4301" d="m137.54 664.78a122.64 17.43 0 1 1 -245.29 0 122.64 17.43 0 1 1 245.29 0z" transform="matrix(1 0 0 1.2182 -5.7044 -137.44)"/>
          <path id="path4303" d="m14.806 607.26 25.726 2.1463 17.031 52.491c0.06614 3.9363-3.0404 10.241-3.7243 9.896-28.667-12.579-68.169-21.792-98.026-2.2392l59.13-61.407z"/>
          <path id="path4305" d="m137.54 664.78a122.64 17.43 0 1 1 -245.29 0 122.64 17.43 0 1 1 245.29 0z" transform="matrix(1 0 0 1.2182 -5.7044 -137.44)"/>
          <path id="path4307" d="m-1.586 607.74 36.727 0.78 18.989 63.17c-9.2644 9.8686-118.06 12.816-96.745-9.3099l1.3242-0.78715 26.527-52.326z"/>
          <rect id="rect4309" opacity=".44" transform="matrix(.99975 .022295 -.069665 .99757 0 0)" height="194.41" width="324.74" y="420.15" x="-120.44"/>
          <path id="path4311" d="m-1.586 607.74 36.727 0.78 18.989 63.17c-9.2644 9.8686-118.06 12.816-96.745-9.3099l1.3242-0.78715 26.527-52.326z"/>
          <path id="path4313" d="m14.594 611.69c-11.626 2.7-16.698 17.75-11.542 27.95 5.7083 12.3 12.754 24.2 22.073 34.11 5.2156 1.3532 10.51-0.70895 15.722-1.1484 3.0635-0.64874 6.0486-1.663 8.9343-2.7891-5.7968-19.259-11.583-38.521-17.375-57.781-5.9393-0.0256-11.872-0.50749-17.812-0.34375z"/>
          <path id="path4315" d="m-150.61 415.78 324.58 7.2383 7.8479 2.6908-16.089 192.43c-2.277 0.31308-4.5556 0.62616-7.0389 0.93924l-314.06-8.6915-8.5537-0.22349z"/>
          <path id="path4317" d="m-150.61 415.78 324.58 7.2383 7.8479 2.6908-16.01 192.35-6.9559 1.0184-314.22-8.6915-8.8706 0.0142z"/>
          <path id="path4319" d="m-137.92 426 300.51 7.533-13.605 173.46-299.84-7.0848z"/>
          <path id="path4321" d="m-145.93 599.93c97.372 2.3873 198.11 5.783 295.48 8.1703 4.0558-56.187 8.1116-112.37 12.167-168.56-97.372-2.3873-194.74-4.7746-292.12-7.1619-4.0558 56.187-11.473 111.36-15.529 167.55z"/>
          <path id="path4323" d="m-145.93 599.93c97.372 2.3873 198.11 5.783 295.48 8.1703 4.0558-56.187 8.1116-112.37 12.167-168.56-97.372-2.3873-194.74-4.7746-292.12-7.1619-4.0558 56.187-11.473 111.36-15.529 167.55z"/>
          <path id="path4325" d="m-146.04 599.82c97.372 2.3873 198.22 5.8951 295.59 8.2824 4.0558-56.187 8.5598-114.61 12.616-170.8-97.372-2.3873-199.23-4.7746-296.6-7.1619-4.0558 56.187-7.5514 113.49-11.607 169.68z"/>
          <path id="path4327" d="m181.91 426.15-8.5566-3.1691-14.657 196.17c4.2459 0.21808 6.8452-0.13909 7.289-1.1884z"/>
          <path id="path4329" d="m137.63 611.14 9.2282 0.32191-0.53652 4.6141-9.0136-0.32191z"/>
          <path id="path4331" d="m137.52 615.47c2.8416 0.11554 5.6832 0.23109 8.5248 0.34662 0.15459-1.3711 0.30918-2.7422 0.46378-4.1132-2.8858-0.11553-5.7715-0.23107-8.6573-0.34662-0.11042 1.3711-0.22085 2.7422-0.33128 4.1132z"/>
          <path id="path4333" d="m137.69 615.38c2.7708 0.10795 5.5416 0.2159 8.3124 0.32386 0.15075-1.281 0.30149-2.562 0.45223-3.8431-2.8138-0.10796-5.6277-0.21591-8.4416-0.32386-0.10766 1.281-0.21534 2.5621-0.32302 3.8431z"/>
          <path id="path4335" d="m137.69 615.38c2.7708 0.10795 5.5416 0.2159 8.3124 0.32386 0.15075-1.281 0.30149-2.562 0.45223-3.8431-2.8138-0.10796-5.6277-0.21591-8.4416-0.32386-0.10766 1.281-0.21534 2.5621-0.32302 3.8431z"/>
          <path id="path4337" d="m146.45 611.86c-2.7708-0.10796-5.5416-0.2159-8.3124-0.32386-0.15075 1.281-0.30148 2.5621-0.45223 3.8431 2.8139 0.10795 5.6277 0.21591 8.4416 0.32386 0.10767-1.281 0.21534-2.562 0.32302-3.8431z"/>
          <path id="path4339" d="m145.07 613.44a2.3768 1.9015 0 1 1 -4.7536 0 2.3768 1.9015 0 1 1 4.7536 0z" transform="matrix(.67719 0 0 .67719 45.546 198.08)"/>
          <rect id="rect4341" transform="matrix(.99730 .073421 -.10924 .99402 0 0)" ry=".2779" width=".69669" y="600.71" x="208.21" height="2.0949"/>
          <path id="path4343" d="m126.65 610.81 9.2282 0.32191-0.53652 4.6141-9.0136-0.32191z"/>
          <path id="path4345" d="m126.54 615.14c2.8416 0.11554 5.6832 0.23109 8.5248 0.34662 0.15459-1.3711 0.30918-2.7422 0.46378-4.1132-2.8858-0.11553-5.7715-0.23107-8.6573-0.34662-0.11042 1.3711-0.22085 2.7422-0.33128 4.1132z"/>
          <path id="path4347" d="m126.71 615.04c2.7708 0.10795 5.5416 0.2159 8.3124 0.32386 0.15075-1.281 0.30149-2.562 0.45223-3.8431-2.8138-0.10796-5.6277-0.21591-8.4416-0.32386-0.10766 1.281-0.21534 2.5621-0.32302 3.8431z"/>
          <path id="path4349" d="m126.71 615.04c2.7708 0.10795 5.5416 0.2159 8.3124 0.32386 0.15075-1.281 0.30149-2.562 0.45223-3.8431-2.8138-0.10796-5.6277-0.21591-8.4416-0.32386-0.10766 1.281-0.21534 2.5621-0.32302 3.8431z"/>
          <path id="path4351" d="m135.47 611.52c-2.7708-0.10796-5.5416-0.2159-8.3124-0.32386-0.15075 1.281-0.30148 2.5621-0.45223 3.8431 2.8139 0.10795 5.6277 0.21591 8.4416 0.32386 0.10767-1.281 0.21534-2.562 0.32302-3.8431z"/>
          <path id="path4353" d="m145.07 613.44a2.3768 1.9015 0 1 1 -4.7536 0 2.3768 1.9015 0 1 1 4.7536 0z" transform="matrix(.67719 0 0 .67719 34.482 197.69)"/>
          <path id="path4355" d="m116.01 610.47 9.2282 0.32191-0.53652 4.6141-9.0136-0.32191z"/>
          <path id="path4357" d="m115.89 614.8c2.8416 0.11554 5.6832 0.23109 8.5248 0.34662 0.15459-1.3711 0.30918-2.7422 0.46378-4.1132-2.8858-0.11553-5.7715-0.23107-8.6573-0.34662-0.11042 1.3711-0.22085 2.7422-0.33128 4.1132z"/>
          <path id="path4359" d="m116.06 614.71c2.7708 0.10795 5.5416 0.2159 8.3124 0.32386 0.15075-1.281 0.30149-2.562 0.45223-3.8431-2.8138-0.10796-5.6277-0.21591-8.4416-0.32386-0.10766 1.281-0.21534 2.5621-0.32302 3.8431z"/>
          <path id="path4361" d="m116.06 614.71c2.7708 0.10795 5.5416 0.2159 8.3124 0.32386 0.15075-1.281 0.30149-2.562 0.45223-3.8431-2.8138-0.10796-5.6277-0.21591-8.4416-0.32386-0.10766 1.281-0.21534 2.5621-0.32302 3.8431z"/>
          <path id="path4363" d="m124.83 611.19c-2.7708-0.10796-5.5416-0.2159-8.3124-0.32386-0.15075 1.281-0.30148 2.5621-0.45223 3.8431 2.8139 0.10795 5.6277 0.21591 8.4416 0.32386 0.10767-1.281 0.21534-2.562 0.32302-3.8431z"/>
          <path id="path4365" d="m145.07 613.44a2.3768 1.9015 0 1 1 -4.7536 0 2.3768 1.9015 0 1 1 4.7536 0z" transform="matrix(.67719 0 0 .67719 23.922 197.41)"/>
          <path id="path4367" d="m105.48 610.25 9.2282 0.32191-0.53652 4.6141-9.0136-0.32191z"/>
          <path id="path4369" d="m105.36 614.58c2.8416 0.11554 5.6832 0.23109 8.5248 0.34662 0.15459-1.3711 0.30918-2.7422 0.46378-4.1132-2.8858-0.11553-5.7715-0.23107-8.6573-0.34662-0.11042 1.3711-0.22085 2.7422-0.33128 4.1132z"/>
          <path id="path4371" d="m105.53 614.48c2.7708 0.10795 5.5416 0.2159 8.3124 0.32386 0.15075-1.281 0.30149-2.562 0.45223-3.8431-2.8138-0.10796-5.6277-0.21591-8.4416-0.32386-0.10766 1.281-0.21534 2.5621-0.32302 3.8431z"/>
          <path id="path4373" d="m105.53 614.48c2.7708 0.10795 5.5416 0.2159 8.3124 0.32386 0.15075-1.281 0.30149-2.562 0.45223-3.8431-2.8138-0.10796-5.6277-0.21591-8.4416-0.32386-0.10766 1.281-0.21534 2.5621-0.32302 3.8431z"/>
          <path id="path4375" d="m114.29 610.96c-2.7708-0.10796-5.5416-0.2159-8.3124-0.32386-0.15075 1.281-0.30148 2.5621-0.45223 3.8431 2.8139 0.10795 5.6277 0.21591 8.4416 0.32386 0.10767-1.281 0.21534-2.562 0.32302-3.8431z"/>
          <path id="path4377" d="m145.07 613.44a2.3768 1.9015 0 1 1 -4.7536 0 2.3768 1.9015 0 1 1 4.7536 0z" transform="matrix(.67719 0 0 .67719 13.389 197.18)"/>
          <path id="path4379" d="m131.96 612.6-0.50424 1.2497-0.85327-0.49988-0.40077 0.31242h-0.3663l0.43094-1.2497h0.43956l0.0388 0.31242 1.2713-0.49989 0.19822 0.0625z"/>
          <path id="path4381" d="m119.16 621.4a0.83189 0.59421 0 1 1 -1.6638 0 0.83189 0.59421 0 1 1 1.6638 0z" transform="translate(2.2976 -8.5566)"/>
          <rect id="rect4383" transform="matrix(1 0 -.38806 .92164 0 0)" ry=".30153" width="1.743" y="663.8" x="367" height="1.6333"/>
          <path id="path4385" filter="url(#filter4037-8)" d="m-159.03 604.97c87.323 2.6973 174.73 5.4831 262 8.125 0.61119-2.704-3.7939-1.173-5.2188-1.375-84.521-2.8768-169.2-5.4572-253.78-8.125 4.3347-60.215 8.6207-120.44 12.875-180.66 102.89 2.4068 205.79 4.7457 308.69 7.0312-4.3523 60.944-8.6044 121.9-12.906 182.84-1.4718-1.1629-4.5855-0.32355-1.9375 1.0938 1.7264 0.64112 3.5701 0.0281 5.1875-0.375 1.1195-3.1267-0.0354-6.7346 0.81582-9.9909l11.872-175.51-315.69-5.7188c-3.9688 60.885-7.9375 121.77-11.906 182.66z"/>
          <path id="path4387" filter="url(#filter4240-1)" d="m-113.94 677.56c-1.0274 1.6297-2.481 5.0354 0.5625 5.3438 8.126 6.2548 16.929 12.541 27.639 12.502 26.212 3.0152 52.705 1.96 78.924 4.9042 36.857 1.8675 73.776-1.6204 110.28-6.4403 10.224-2.219 19.63-7.2992 28.879-11.653-0.48697-3.3283-4.8574-1.2196-6.7826-0.61987-20.451 5.6176-40.963 12.36-62.11 15.223-45.163 0.24953-90.334-2.0746-135.3-6.12-13.424-1.6834-27.869-3.1088-39.303-10.733-0.95455-0.54511-2.1973-2.568-2.7812-2.4062z"/>
          <path id="path4389" filter="url(#filter4037-8)" d="m-159.03 604.97c87.323 2.6973 174.73 5.4831 262 8.125 0.61119-2.704-3.7939-1.173-5.2188-1.375-84.521-2.8768-169.2-5.4572-253.78-8.125 4.3347-60.215 8.6207-120.44 12.875-180.66 102.89 2.4068 205.79 4.7457 308.69 7.0312-4.3523 60.944-8.6044 121.9-12.906 182.84-1.4718-1.1629-4.5855-0.32355-1.9375 1.0938 1.7264 0.64112 3.5701 0.0281 5.1875-0.375 1.1195-3.1267-0.0354-6.7346 0.81582-9.9909l11.872-175.51-315.69-5.7188c-3.9688 60.885-7.9375 121.77-11.906 182.66z"/>
          <path id="path4391" filter="url(#filter4037-8)" d="m-159.03 604.97c87.323 2.6973 174.73 5.4831 262 8.125 0.61119-2.704-3.7939-1.173-5.2188-1.375-84.521-2.8768-169.2-5.4572-253.78-8.125 4.3347-60.215 8.6207-120.44 12.875-180.66 102.89 2.4068 205.79 4.7457 308.69 7.0312-4.3523 60.944-8.6044 121.9-12.906 182.84-1.4718-1.1629-4.5855-0.32355-1.9375 1.0938 1.7264 0.64112 3.5701 0.0281 5.1875-0.375 1.1195-3.1267-0.0354-6.7346 0.81582-9.9909l11.872-175.51-315.69-5.7188c-3.9688 60.885-7.9375 121.77-11.906 182.66z"/>
        </g>
      </g>
      <g id="g4248">
        <path id="path3128" d="m137.54 664.78c0 9.6264-54.91 17.43-122.64 17.43-67.735 0-122.64-7.8037-122.64-17.43 0-2.0729 4.3721-9.3076 9.0442-11.152 17.025-6.7199 60.451-6.2784 113.6-6.2784 55.603 0 104.39 0.0124 119.43 7.2212 3.2811 1.5728 3.2165 8.4848 3.2165 10.209z" fill="#4d4d4d" transform="matrix(1.0413 0 0 1.2685 -8.8555 -159.9)"/>
        <path id="path3126" d="m137.54 664.78a122.64 17.43 0 1 1 -245.29 0 122.64 17.43 0 1 1 245.29 0z" fill="#1a1a1a" transform="matrix(1 0 0 1.2182 -5.7044 -137.44)"/>
        <path id="path3124" fill="#808080" d="m14.806 607.26 25.726 2.1463 17.031 52.491c0.06614 3.9363-3.0404 10.241-3.7243 9.896-28.667-12.579-68.169-21.792-98.026-2.2392l59.13-61.407z"/>
        <path id="path3133" d="m137.54 664.78a122.64 17.43 0 1 1 -245.29 0 122.64 17.43 0 1 1 245.29 0z" fill="url(#radialGradient3141-2)" transform="matrix(1 0 0 1.2182 -5.7044 -137.44)"/>
        <path id="path3122" fill="#1a1a1a" d="m-1.586 607.74 36.727 0.78 18.989 63.17c-9.2644 9.8686-118.06 12.816-96.745-9.3099l1.3242-0.78715 26.527-52.326z"/>
        <rect id="rect3080" opacity=".44" transform="matrix(.99975 .022295 -.069665 .99757 0 0)" height="194.41" width="324.74" y="420.15" x="-120.44" fill="#520"/>
        <path id="path3153" fill="url(#linearGradient3161-6)" d="m-1.586 607.74 36.727 0.78 18.989 63.17c-9.2644 9.8686-118.06 12.816-96.745-9.3099l1.3242-0.78715 26.527-52.326z"/>
        <path id="path4083" fill="url(#linearGradient4214-8)" d="m14.594 611.69c-11.626 2.7-16.698 17.75-11.542 27.95 5.7083 12.3 12.754 24.2 22.073 34.11 5.2156 1.3532 10.51-0.70895 15.722-1.1484 3.0635-0.64874 6.0486-1.663 8.9343-2.7891-5.7968-19.259-11.583-38.521-17.375-57.781-5.9393-0.0256-11.872-0.50749-17.812-0.34375z"/>
        <path id="rect3082" d="m-150.61 415.78 324.58 7.2383 7.8479 2.6908-16.089 192.43c-2.277 0.31308-4.5556 0.62616-7.0389 0.93924l-314.06-8.6915-8.5537-0.22349z"/>
        <path id="path3143" fill="url(#linearGradient3151-8)" d="m-150.61 415.78 324.58 7.2383 7.8479 2.6908-16.01 192.35-6.9559 1.0184-314.22-8.6915-8.8706 0.0142z"/>
        <path id="rect3087" d="m-137.92 426 300.51 7.533-13.605 173.46-299.84-7.0848z"/>
        <path id="path3090" fill="#1a1a1a" d="m-145.93 599.93c97.372 2.3873 198.11 5.783 295.48 8.1703 4.0558-56.187 8.1116-112.37 12.167-168.56-97.372-2.3873-194.74-4.7746-292.12-7.1619-4.0558 56.187-11.473 111.36-15.529 167.55z"/>
        <path id="path3098" fill="url(#radialGradient3106-3)" d="m-145.93 599.93c97.372 2.3873 198.11 5.783 295.48 8.1703 4.0558-56.187 8.1116-112.37 12.167-168.56-97.372-2.3873-194.74-4.7746-292.12-7.1619-4.0558 56.187-11.473 111.36-15.529 167.55z"/>
        <path id="path3108" fill="url(#radialGradient3110-0)" d="m-146.04 599.82c97.372 2.3873 198.22 5.8951 295.59 8.2824 4.0558-56.187 8.5598-114.61 12.616-170.8-97.372-2.3873-199.23-4.7746-296.6-7.1619-4.0558 56.187-7.5514 113.49-11.607 169.68z"/>
        <path id="path3131" fill="#1a1a1a" d="m181.91 426.15-8.5566-3.1691-14.657 196.17c4.2459 0.21808 6.8452-0.13909 7.289-1.1884z"/>
        <path id="path3163" fill="#333" d="m137.63 611.14 9.2282 0.32191-0.53652 4.6141-9.0136-0.32191z"/>
        <path id="path3165" d="m137.52 615.47c2.8416 0.11554 5.6832 0.23109 8.5248 0.34662 0.15459-1.3711 0.30918-2.7422 0.46378-4.1132-2.8858-0.11553-5.7715-0.23107-8.6573-0.34662-0.11042 1.3711-0.22085 2.7422-0.33128 4.1132z"/>
        <path id="path3175" fill="#999" d="m137.69 615.38c2.7708 0.10795 5.5416 0.2159 8.3124 0.32386 0.15075-1.281 0.30149-2.562 0.45223-3.8431-2.8138-0.10796-5.6277-0.21591-8.4416-0.32386-0.10766 1.281-0.21534 2.5621-0.32302 3.8431z"/>
        <path id="path3177" fill="url(#linearGradient3185-3)" d="m137.69 615.38c2.7708 0.10795 5.5416 0.2159 8.3124 0.32386 0.15075-1.281 0.30149-2.562 0.45223-3.8431-2.8138-0.10796-5.6277-0.21591-8.4416-0.32386-0.10766 1.281-0.21534 2.5621-0.32302 3.8431z"/>
        <path id="path3187" fill="url(#linearGradient3189-2)" d="m146.45 611.86c-2.7708-0.10796-5.5416-0.2159-8.3124-0.32386-0.15075 1.281-0.30148 2.5621-0.45223 3.8431 2.8139 0.10795 5.6277 0.21591 8.4416 0.32386 0.10767-1.281 0.21534-2.562 0.32302-3.8431z"/>
        <path id="path3191" d="m145.07 613.44a2.3768 1.9015 0 1 1 -4.7536 0 2.3768 1.9015 0 1 1 4.7536 0z" fill="#4d4d4d" transform="matrix(.67719 0 0 .67719 45.546 198.08)"/>
        <rect id="rect3193" transform="matrix(.99730 .073421 -.10924 .99402 0 0)" ry=".2779" width=".69669" y="600.71" x="208.21" height="2.0949" fill="#333"/>
        <path id="path3195" fill="#333" d="m126.65 610.81 9.2282 0.32191-0.53652 4.6141-9.0136-0.32191z"/>
        <path id="path3197" d="m126.54 615.14c2.8416 0.11554 5.6832 0.23109 8.5248 0.34662 0.15459-1.3711 0.30918-2.7422 0.46378-4.1132-2.8858-0.11553-5.7715-0.23107-8.6573-0.34662-0.11042 1.3711-0.22085 2.7422-0.33128 4.1132z"/>
        <path id="path3199" fill="#999" d="m126.71 615.04c2.7708 0.10795 5.5416 0.2159 8.3124 0.32386 0.15075-1.281 0.30149-2.562 0.45223-3.8431-2.8138-0.10796-5.6277-0.21591-8.4416-0.32386-0.10766 1.281-0.21534 2.5621-0.32302 3.8431z"/>
        <path id="path3201" fill="url(#linearGradient3209-2)" d="m126.71 615.04c2.7708 0.10795 5.5416 0.2159 8.3124 0.32386 0.15075-1.281 0.30149-2.562 0.45223-3.8431-2.8138-0.10796-5.6277-0.21591-8.4416-0.32386-0.10766 1.281-0.21534 2.5621-0.32302 3.8431z"/>
        <path id="path3203" fill="url(#linearGradient3211-7)" d="m135.47 611.52c-2.7708-0.10796-5.5416-0.2159-8.3124-0.32386-0.15075 1.281-0.30148 2.5621-0.45223 3.8431 2.8139 0.10795 5.6277 0.21591 8.4416 0.32386 0.10767-1.281 0.21534-2.562 0.32302-3.8431z"/>
        <path id="path3205" d="m145.07 613.44a2.3768 1.9015 0 1 1 -4.7536 0 2.3768 1.9015 0 1 1 4.7536 0z" fill="#4d4d4d" transform="matrix(.67719 0 0 .67719 34.482 197.69)"/>
        <path id="path3213" fill="#333" d="m116.01 610.47 9.2282 0.32191-0.53652 4.6141-9.0136-0.32191z"/>
        <path id="path3215" d="m115.89 614.8c2.8416 0.11554 5.6832 0.23109 8.5248 0.34662 0.15459-1.3711 0.30918-2.7422 0.46378-4.1132-2.8858-0.11553-5.7715-0.23107-8.6573-0.34662-0.11042 1.3711-0.22085 2.7422-0.33128 4.1132z"/>
        <path id="path3217" fill="#999" d="m116.06 614.71c2.7708 0.10795 5.5416 0.2159 8.3124 0.32386 0.15075-1.281 0.30149-2.562 0.45223-3.8431-2.8138-0.10796-5.6277-0.21591-8.4416-0.32386-0.10766 1.281-0.21534 2.5621-0.32302 3.8431z"/>
        <path id="path3219" fill="url(#linearGradient3227-8)" d="m116.06 614.71c2.7708 0.10795 5.5416 0.2159 8.3124 0.32386 0.15075-1.281 0.30149-2.562 0.45223-3.8431-2.8138-0.10796-5.6277-0.21591-8.4416-0.32386-0.10766 1.281-0.21534 2.5621-0.32302 3.8431z"/>
        <path id="path3221" fill="url(#linearGradient3229-7)" d="m124.83 611.19c-2.7708-0.10796-5.5416-0.2159-8.3124-0.32386-0.15075 1.281-0.30148 2.5621-0.45223 3.8431 2.8139 0.10795 5.6277 0.21591 8.4416 0.32386 0.10767-1.281 0.21534-2.562 0.32302-3.8431z"/>
        <path id="path3223" d="m145.07 613.44a2.3768 1.9015 0 1 1 -4.7536 0 2.3768 1.9015 0 1 1 4.7536 0z" fill="#4d4d4d" transform="matrix(.67719 0 0 .67719 23.922 197.41)"/>
        <path id="path3231" fill="#333" d="m105.48 610.25 9.2282 0.32191-0.53652 4.6141-9.0136-0.32191z"/>
        <path id="path3233" d="m105.36 614.58c2.8416 0.11554 5.6832 0.23109 8.5248 0.34662 0.15459-1.3711 0.30918-2.7422 0.46378-4.1132-2.8858-0.11553-5.7715-0.23107-8.6573-0.34662-0.11042 1.3711-0.22085 2.7422-0.33128 4.1132z"/>
        <path id="path3235" fill="#999" d="m105.53 614.48c2.7708 0.10795 5.5416 0.2159 8.3124 0.32386 0.15075-1.281 0.30149-2.562 0.45223-3.8431-2.8138-0.10796-5.6277-0.21591-8.4416-0.32386-0.10766 1.281-0.21534 2.5621-0.32302 3.8431z"/>
        <path id="path3237" fill="url(#linearGradient3245-3)" d="m105.53 614.48c2.7708 0.10795 5.5416 0.2159 8.3124 0.32386 0.15075-1.281 0.30149-2.562 0.45223-3.8431-2.8138-0.10796-5.6277-0.21591-8.4416-0.32386-0.10766 1.281-0.21534 2.5621-0.32302 3.8431z"/>
        <path id="path3239" fill="url(#linearGradient3247-0)" d="m114.29 610.96c-2.7708-0.10796-5.5416-0.2159-8.3124-0.32386-0.15075 1.281-0.30148 2.5621-0.45223 3.8431 2.8139 0.10795 5.6277 0.21591 8.4416 0.32386 0.10767-1.281 0.21534-2.562 0.32302-3.8431z"/>
        <path id="path3241" d="m145.07 613.44a2.3768 1.9015 0 1 1 -4.7536 0 2.3768 1.9015 0 1 1 4.7536 0z" fill="#4d4d4d" transform="matrix(.67719 0 0 .67719 13.389 197.18)"/>
        <path id="path3249" fill="#333" d="m131.96 612.6-0.50424 1.2497-0.85327-0.49988-0.40077 0.31242h-0.3663l0.43094-1.2497h0.43956l0.0388 0.31242 1.2713-0.49989 0.19822 0.0625z"/>
        <path id="path3251" d="m119.16 621.4a0.83189 0.59421 0 1 1 -1.6638 0 0.83189 0.59421 0 1 1 1.6638 0z" fill="#333" transform="translate(2.2976 -8.5566)"/>
        <rect id="rect3253" transform="matrix(1 0 -.38806 .92164 0 0)" ry=".30153" width="1.743" y="663.8" x="367" height="1.6333" fill="#333"/>
        <path id="path3255" filter="url(#filter4037-8)" fill="#b3b3b3" d="m-159.03 604.97c87.323 2.6973 174.73 5.4831 262 8.125 0.61119-2.704-3.7939-1.173-5.2188-1.375-84.521-2.8768-169.2-5.4572-253.78-8.125 4.3347-60.215 8.6207-120.44 12.875-180.66 102.89 2.4068 205.79 4.7457 308.69 7.0312-4.3523 60.944-8.6044 121.9-12.906 182.84-1.4718-1.1629-4.5855-0.32355-1.9375 1.0938 1.7264 0.64112 3.5701 0.0281 5.1875-0.375 1.1195-3.1267-0.0354-6.7346 0.81582-9.9909l11.872-175.51-315.69-5.7188c-3.9688 60.885-7.9375 121.77-11.906 182.66z"/>
        <path id="path4216" filter="url(#filter4240-1)" fill="#ccc" d="m-113.94 677.56c-1.0274 1.6297-2.481 5.0354 0.5625 5.3438 8.126 6.2548 16.929 12.541 27.639 12.502 26.212 3.0152 52.705 1.96 78.924 4.9042 36.857 1.8675 73.776-1.6204 110.28-6.4403 10.224-2.219 19.63-7.2992 28.879-11.653-0.48697-3.3283-4.8574-1.2196-6.7826-0.61987-20.451 5.6176-40.963 12.36-62.11 15.223-45.163 0.24953-90.334-2.0746-135.3-6.12-13.424-1.6834-27.869-3.1088-39.303-10.733-0.95455-0.54511-2.1973-2.568-2.7812-2.4062z"/>
        <path id="path4244" filter="url(#filter4037-8)" fill="#b3b3b3" d="m-159.03 604.97c87.323 2.6973 174.73 5.4831 262 8.125 0.61119-2.704-3.7939-1.173-5.2188-1.375-84.521-2.8768-169.2-5.4572-253.78-8.125 4.3347-60.215 8.6207-120.44 12.875-180.66 102.89 2.4068 205.79 4.7457 308.69 7.0312-4.3523 60.944-8.6044 121.9-12.906 182.84-1.4718-1.1629-4.5855-0.32355-1.9375 1.0938 1.7264 0.64112 3.5701 0.0281 5.1875-0.375 1.1195-3.1267-0.0354-6.7346 0.81582-9.9909l11.872-175.51-315.69-5.7188c-3.9688 60.885-7.9375 121.77-11.906 182.66z"/>
        <path id="path4246" filter="url(#filter4037-8)" fill="#b3b3b3" d="m-159.03 604.97c87.323 2.6973 174.73 5.4831 262 8.125 0.61119-2.704-3.7939-1.173-5.2188-1.375-84.521-2.8768-169.2-5.4572-253.78-8.125 4.3347-60.215 8.6207-120.44 12.875-180.66 102.89 2.4068 205.79 4.7457 308.69 7.0312-4.3523 60.944-8.6044 121.9-12.906 182.84-1.4718-1.1629-4.5855-0.32355-1.9375 1.0938 1.7264 0.64112 3.5701 0.0281 5.1875-0.375 1.1195-3.1267-0.0354-6.7346 0.81582-9.9909l11.872-175.51-315.69-5.7188c-3.9688 60.885-7.9375 121.77-11.906 182.66z"/>
      </g>
    </g>
  </g>
  <metadata>
    <rdf:RDF>
      <cc:Work>
        <dc:format>image/svg+xml</dc:format>
        <dc:type rdf:resource="http://purl.org/dc/dcmitype/StillImage"/>
        <cc:license rdf:resource="http://creativecommons.org/licenses/publicdomain/"/>
        <dc:publisher>
          <cc:Agent rdf:about="http://openclipart.org/">
            <dc:title>Openclipart</dc:title>
          </cc:Agent>
        </dc:publisher>
        <dc:title>LCD Screen</dc:title>
        <dc:date>2010-08-13T18:33:14</dc:date>
        <dc:description>Black computer LCD Screen</dc:description>
        <dc:source>http://openclipart.org/detail/80239/lcd-screen-by-inky2010</dc:source>
        <dc:creator>
          <cc:Agent>
            <dc:title>inky2010</dc:title>
          </cc:Agent>
        </dc:creator>
        <dc:subject>
          <rdf:Bag>
            <rdf:li>HD</rdf:li>
            <rdf:li>Lcd</rdf:li>
            <rdf:li>black</rdf:li>
            <rdf:li>clip art</rdf:li>
            <rdf:li>clipart</rdf:li>
            <rdf:li>computer</rdf:li>
            <rdf:li>gloss</rdf:li>
            <rdf:li>hardware</rdf:li>
            <rdf:li>lcd screen</rdf:li>
            <rdf:li>pixel</rdf:li>
            <rdf:li>screen</rdf:li>
            <rdf:li>tv</rdf:li>
          </rdf:Bag>
        </dc:subject>
      </cc:Work>
      <cc:License rdf:about="http://creativecommons.org/licenses/publicdomain/">
        <cc:permits rdf:resource="http://creativecommons.org/ns#Reproduction"/>
        <cc:permits rdf:resource="http://creativecommons.org/ns#Distribution"/>
        <cc:permits rdf:resource="http://creativecommons.org/ns#DerivativeWorks"/>
      </cc:License>
    </rdf:RDF>
  </metadata>
</svg>
