<?xml version="1.0"?>
<svg xmlns:rdf="http://www.w3.org/1999/02/22-rdf-syntax-ns#" xmlns="http://www.w3.org/2000/svg" xmlns:cc="http://web.resource.org/cc/" xmlns:dc="http://purl.org/dc/elements/1.1/" xmlns:svg="http://www.w3.org/2000/svg" id="svg2" viewBox="0 0 477.79 453.44" version="1.0">
  <g id="layer1" transform="translate(-137.28 -455.18)">
    <g id="g2028">
      <path id="path4656" stroke-linejoin="round" d="m485.45 582.5c26.78 29.67 48.93 58.57 71.58 82.37 22.65 23.81 45.8 42.53 50.19 73.88 8.78 62.7-0.04 90.83-40.23 127.09-40.18 36.27-87.61 49.23-149.08 34.1-30.74-7.57-53.21-24.83-79.27-43.48-26.06-18.66-52.28-41.8-79.06-71.47-26.78-29.68-45.93-63.69-66.74-91.59-20.8-27.9-46.69-46.57-51.08-77.92-8.77-62.7 11.61-96.42 51.79-132.69 20.09-18.14 38.05-24.46 58.67-24.36 20.62 0.11 43.91 6.63 74.65 14.2 61.47 15.13 105.02 50.53 158.58 109.87z" stroke="#000" stroke-width="4.9455" fill="#acaca7"/>
      <path id="path4683" stroke-linejoin="round" d="m462.34 579.77c72.86 111.61 136.64 120.34 143.71 144.94 16.62 57.81-0.59 105.62-37.51 140.12-34.43 32.17-104.95 56.95-126.68 26.77-17.73-24.65-9.88-58.97-19.3-82.74-10.46-26.39-43.56-47.84-84.27-70.05-31.5-17.19-70.17-41.97-103.84-62.45-33.27-20.24-63.41-35.67-75.82-62.51-25.84-55.92-12.65-86.53 24.86-120.39 37.35-33.71 64.01-44.61 123.72-27.87 59.71 16.75 101.13 54.88 155.15 114.21" stroke="#000" stroke-width="5.3286" fill="#060101"/>
      <path id="path4668" stroke-linejoin="round" d="m311.5 529.06c32.91 26.33 54.29 43.85 66.8 56.57 17.72 18.03 28.14 40.28 24.9 52.08-3.31 12.06-8.09 11.72-33.5 5.26s-54.63-22.27-85.65-43.53c-30.75-21.07-55.02-45.01-77.58-59.3-21.76-13.78-25.73-34.86-18.7-45.21 7-10.3 26.09-11.52 51.33-5.16 25.24 6.37 39.98 18.74 71.6 38.79" stroke="#000" stroke-width="5.1319" fill="#acaca7"/>
      <path id="path4666" stroke-linejoin="round" d="m436.77 300.09a21.582 32.886 0 1 1 0 -0.23" transform="matrix(.42791 -.90382 .90382 .42791 -182.22 790.01)" stroke="#000" stroke-width="4.6" fill="#070101"/>
      <path id="path4671" stroke-linejoin="round" d="m295.98 488.67a10.791 40.594 0 1 1 0 -0.28" transform="matrix(.58860 -.80843 .80843 .58860 -261.38 703.83)" stroke="#000" stroke-width="4.6" fill="#070101"/>
      <path id="path4673" stroke-linejoin="round" d="m283.64 405.43a8.2216 24.151 0 1 1 0 -0.17" fill-opacity=".99459" transform="matrix(.63048 -.77621 .77621 .63048 -258.53 664.76)" stroke="#000" stroke-width="4.6" fill="#060000"/>
      <path id="path8236" d="m350.27 186.15a4.3602 4.3602 0 1 1 0 -0.03" fill="blue" transform="matrix(1.3609 -1.2284 1.0051 1.1135 -441.11 729.72)"/>
      <rect id="rect9123" transform="rotate(-42.07)" height="29.068" width="14.534" y="459.22" x="-201.84" fill="#280b0b"/>
    </g>
  </g>
  <metadata>
    <rdf:RDF>
      <cc:Work>
        <dc:format>image/svg+xml</dc:format>
        <dc:type rdf:resource="http://purl.org/dc/dcmitype/StillImage"/>
        <cc:license rdf:resource="http://creativecommons.org/licenses/publicdomain/"/>
        <dc:publisher>
          <cc:Agent rdf:about="http://openclipart.org/">
            <dc:title>Openclipart</dc:title>
          </cc:Agent>
        </dc:publisher>
        <dc:title>mouse</dc:title>
        <dc:date>2006-12-27T03:18:11</dc:date>
        <dc:description>clip art, clipart, computer, device, hardware, image, media, mouse, office, png, public domain, school, svg, technology, </dc:description>
        <dc:source>http://openclipart.org/detail/2308/mouse-by-machovka</dc:source>
        <dc:creator>
          <cc:Agent>
            <dc:title>Machovka</dc:title>
          </cc:Agent>
        </dc:creator>
        <dc:subject>
          <rdf:Bag>
            <rdf:li>clip art</rdf:li>
            <rdf:li>clipart</rdf:li>
            <rdf:li>computer</rdf:li>
            <rdf:li>device</rdf:li>
            <rdf:li>hardware</rdf:li>
            <rdf:li>image</rdf:li>
            <rdf:li>media</rdf:li>
            <rdf:li>mouse</rdf:li>
            <rdf:li>office</rdf:li>
            <rdf:li>png</rdf:li>
            <rdf:li>public domain</rdf:li>
            <rdf:li>school</rdf:li>
            <rdf:li>svg</rdf:li>
            <rdf:li>technology</rdf:li>
          </rdf:Bag>
        </dc:subject>
      </cc:Work>
      <cc:License rdf:about="http://creativecommons.org/licenses/publicdomain/">
        <cc:permits rdf:resource="http://creativecommons.org/ns#Reproduction"/>
        <cc:permits rdf:resource="http://creativecommons.org/ns#Distribution"/>
        <cc:permits rdf:resource="http://creativecommons.org/ns#DerivativeWorks"/>
      </cc:License>
    </rdf:RDF>
  </metadata>
</svg>
